<svg width="219" height="58" viewBox="0 0 219 58" fill="none" xmlns="http://www.w3.org/2000/svg"><mask id="a" style="mask-type:luminance" maskUnits="userSpaceOnUse" x="0" y="0" width="63" height="58"><path d="M62.825 0H0v58h62.825V0Z" fill="#fff"/></mask><g mask="url(#a)" fill-rule="evenodd" clip-rule="evenodd"><path d="M24.374 43.614 45.012 22.99c1.731-1.73 4.42-1.73 6.06 0L58.086 30c1.731 1.73 1.731 4.417 0 6.055L37.45 56.772c-1.731 1.73-4.419 1.73-6.06 0l-7.015-7.011c-1.731-1.73-1.731-4.416 0-6.146Z" fill="#5426FF"/><path d="M24.374 43.614 45.012 22.99c1.731-1.73 4.42-1.73 6.06 0L58.086 30c1.731 1.73 1.731 4.417 0 6.055L37.45 56.772c-1.731 1.73-4.419 1.73-6.06 0l-7.015-7.011c-1.731-1.73-1.731-4.416 0-6.146Z" fill="#5426FF"/><path opacity=".5" d="M48.429 37.104c1.731-1.73 1.731-4.416 0-6.055l-5.74-5.737-18.315 18.302c-1.731 1.73-1.731 4.416 0 6.055l5.74 5.736L48.43 37.104Z" fill="#4911D4"/><path d="M3.371 21.078 23.144 1.23c1.731-1.73 4.419-1.73 6.06 0l7.015 7.011c1.731 1.73 1.731 4.416 0 6.055L16.401 34.1c-1.731 1.73-4.42 1.73-6.06 0l-6.97-6.966a4.179 4.179 0 0 1 0-6.055Z" fill="#5426FF"/><path opacity=".5" d="M36.265 14.386c1.73-1.73 1.73-4.416 0-6.055l-5.285-5.28-18.041 18.027c-1.732 1.73-1.732 4.416 0 6.055l5.285 5.236 18.04-17.983Z" fill="#4911D4"/><path d="m61.003 17.8-5.467.957c-.957.182-1.822-.091-2.506-.774L41.595 6.556c-2.506-2.504-6.697-2.504-9.203 0L.182 38.697c-.5.5-.09 1.138.593 1.047l5.968-.956c.865-.091 1.73.091 2.323.774l11.299 11.29c2.87 2.869 6.606 2.686 9.476-.273l31.754-31.731c.456-.456 0-1.23-.592-1.047Zm-18.497 6.33-14.67 14.659a3.741 3.741 0 0 1-5.284 0l-3.144-3.141c-.501-.501-.592-1.32 0-1.912l14.943-14.933c1.23-1.229 3.371-1.229 4.602 0l3.553 3.551c.456.455.456 1.32 0 1.776Z" fill="#CD40A7"/><path d="m44.693 35.738-2.415-2.686-9.612.865-4.875 4.871a3.742 3.742 0 0 1-5.285 0l4.92 4.917c2.87 2.868 6.606 2.686 9.477-.273l7.79-7.694Z" fill="url(#b)"/><path d="m24.92 13.976-9.658 9.697c3.463 2.413 7.29 5.1 7.29 5.1s.182.5.5 1.137l11.3-11.29c1.23-1.23 3.37-1.23 4.6 0l-4.692-4.735a6.66 6.66 0 0 0-9.34.091Z" fill="url(#c)"/></g><path d="M106.334 31.823v-6.966h4.51l6.242 6.966h3.006l-7.335-8.15 7.335-8.012h-3.006l-6.242 6.965h-4.51V11.381h-2.278v20.442h2.278ZM215.629 15.66h-10.752v-4.278h-2.369v20.44h13.121c.865 0 1.776-.273 2.369-.955.683-.683.956-1.457.956-2.368v-9.378c0-.865-.273-1.776-.956-2.367-.593-.774-1.504-1.093-2.369-1.093Zm1.093 12.84c0 .272-.091.591-.273.773-.183.182-.501.273-.775.273h-9.658c-.274 0-.592-.09-.775-.273-.182-.182-.273-.5-.273-.774v-9.378c0-.273.091-.592.273-.774.183-.182.501-.273.775-.273h9.658c.274 0 .592.09.775.273.182.182.273.5.273.774v9.378Zm-92.21-17.118h-2.233v1.274h2.233v-1.274Zm-39.91 20.441h13.394c.866 0 1.777-.274 2.369-.956.684-.683.957-1.457.957-2.368v-4.507c0-.865-.273-1.775-.957-2.367-.683-.683-1.457-.956-2.369-.956H84.602c-.273 0-.592-.091-.774-.273-.183-.183-.274-.501-.274-.774v-4.507c0-.274.091-.592.274-.774.182-.182.5-.273.774-.273h13.394c.274 0 .593.09.775.273.182.182.273.5.273.774v.774h2.233v-.774c0-.865-.274-1.776-.957-2.368-.683-.683-1.458-.956-2.37-.956H84.558c-.957 0-1.777.273-2.37.956-.683.683-.956 1.457-.956 2.368v4.461c0 .956.273 1.776.957 2.367.683.683 1.457.956 2.369.956H97.95c.273 0 .592.092.774.274.183.182.274.5.274.774v4.507c0 .273-.091.591-.274.774-.182.182-.5.273-.774.273H84.557c-.274 0-.593-.091-.775-.273-.182-.183-.273-.501-.273-.774v-.774h-2.233v.774c0 .956.274 1.775.957 2.367.73.683 1.504 1.002 2.37 1.002Zm39.91-16.163h-2.233v16.117h2.233V15.661Zm73.03 12.84c0 .272-.091.591-.273.773-.183.182-.502.273-.775.273h-9.704c-.273 0-.592-.09-.774-.273-.183-.182-.274-.5-.274-.774V15.661h-2.232v12.793c0 .865.273 1.775.957 2.367.683.683 1.457.956 2.369.956h9.658c.957 0 1.777-.273 2.46-.956.684-.683.957-1.457.957-2.367V15.66h-2.232v12.793l-.137.045Zm-21.686 2.321c.683.683 1.458.956 2.369.956h2.734v-2.23h-2.734c-.273 0-.592-.092-.774-.274-.183-.182-.274-.5-.274-.774V11.382h-2.232v17.117c-.091.865.228 1.64.911 2.322Zm-22.688-18.074c-.684.683-.957 1.457-.957 2.368v13.293c0 .956.273 1.776.957 2.367.683.683 1.458.957 2.369.957h16.629V29.5h-16.629c-.273 0-.592-.091-.775-.273-.182-.183-.273-.501-.273-.774v-13.34c0-.273.091-.591.273-.773.183-.182.502-.273.775-.273h16.629v-2.231h-16.629c-.911-.046-1.686.318-2.369.91ZM140.73 15.66h-13.121v16.117h2.233V18.984c0-.273.091-.592.273-.774.182-.182.501-.273.775-.273h9.658c.273 0 .592.091.775.273.182.182.273.501.273.774v12.793h2.232V18.984c0-.865-.273-1.775-.956-2.367-.547-.546-1.23-.956-2.142-.956Zm8.292 13.886h-2.232v2.231h2.232v-2.23Zm-4.92 11.518c-.091 0-.183.091-.183.182v4.189c0 .09.092.182.183.182h5.33v1.002h-5.33a1.206 1.206 0 0 1-1.185-1.184v-4.189c0-.637.547-1.183 1.185-1.183h5.33v1.001h-5.33Zm10.387.273c.638 0 1.185.547 1.185 1.184v2.914c0 .637-.547 1.183-1.185 1.183h-3.007a1.205 1.205 0 0 1-1.184-1.183V42.52c0-.637.546-1.184 1.184-1.184h3.007Zm-3.007 1.002a.196.196 0 0 0-.182.182v2.914c0 .09.091.182.182.182h3.007a.196.196 0 0 0 .182-.182V42.52a.196.196 0 0 0-.182-.182h-3.007Zm10.342-1.002v4.098c0 .637-.547 1.183-1.185 1.183h-3.006a1.206 1.206 0 0 1-1.185-1.183v-4.098h1.002v4.098c0 .09.091.182.183.182h3.006c.092 0 .183-.091.183-.182v-4.098h1.002Zm6.333 1.184v4.097h-1.003v-4.097a.196.196 0 0 0-.182-.182h-3.007a.196.196 0 0 0-.182.182v4.097h-1.002v-5.235h4.191c.638-.046 1.185.5 1.185 1.138Zm1.913-.181v3.095c0 .09.091.182.182.182h1.959v1.002h-1.959a1.205 1.205 0 0 1-1.184-1.184v-5.827h1.002v1.73h2.141v1.001h-2.141Zm8.064.181v1.958h-4.374v.956c0 .09.091.182.183.182h4.191v1.002h-4.191a1.206 1.206 0 0 1-1.185-1.184V42.52c0-.637.547-1.184 1.185-1.184h3.006c.684 0 1.185.547 1.185 1.184Zm-.957.956v-.956a.196.196 0 0 0-.182-.182h-3.007a.196.196 0 0 0-.182.182v.956h3.371Zm5.832-2.14v1.002h-2.962a.196.196 0 0 0-.182.182v4.097h-1.002v-4.097c0-.637.547-1.184 1.184-1.184h2.962Zm4.237 2.095h-3.645v1.001h3.645v-1.001Zm7.517-1.776h-1.002v-.364c0-.091-.092-.182-.183-.182h-4.191a.196.196 0 0 0-.182.182v1.411c0 .091.091.182.182.182h4.191c.638 0 1.185.547 1.185 1.184v1.411c0 .638-.547 1.184-1.185 1.184h-4.191a1.206 1.206 0 0 1-1.185-1.184v-.41h1.003v.365c0 .09.091.182.182.182h4.191c.091 0 .183-.091.183-.182v-1.411c0-.092-.092-.182-.183-.182h-4.191a1.206 1.206 0 0 1-1.185-1.184v-1.412c0-.637.547-1.183 1.185-1.183h4.191c.638 0 1.185.546 1.185 1.183v.41Zm1.913.684v3.095c0 .09.091.182.183.182h1.959v1.002h-1.959a1.206 1.206 0 0 1-1.185-1.184v-5.827h1.002v1.73h2.142v1.001h-2.142Zm6.834-1.003v1.002h-2.961a.196.196 0 0 0-.182.182v4.097h-1.003v-4.097c0-.637.547-1.184 1.185-1.184h2.961Zm1.504-1.684v1.002h-1.003v-1.002h1.003Zm-.957 1.684h1.002v5.236h-1.002v-5.236Zm7.198 0v.137l-2.278 2.504 2.278 2.504v.136h-1.185l-1.959-2.14h-1.184v2.14h-.957v-6.965h.957v3.824h1.184l1.959-2.14h1.185Zm5.649 1.184v1.958h-4.373v.956c0 .09.091.182.182.182h4.191v1.002h-4.146a1.206 1.206 0 0 1-1.184-1.184V42.52c0-.637.547-1.184 1.184-1.184h3.007c.638 0 1.139.547 1.139 1.184Zm-.956.956v-.956c0-.09-.092-.182-.183-.182h-3.007a.196.196 0 0 0-.182.182v.956h3.372ZM92.94 41.337v1.002h-2.962a.196.196 0 0 0-.182.182v4.097h-1.002v-4.097c0-.637.546-1.184 1.184-1.184h2.962Zm1.503-1.684v1.002H93.44v-1.002h1.002Zm-1.002 1.684h1.002v5.236H93.44v-5.236Zm8.382 0-2.87 5.281h-1.002l-2.916-5.28h1.14l2.277 4.188 2.278-4.189h1.093Zm5.467 1.184v1.958h-4.373v.956c0 .09.091.182.182.182h4.191v1.002h-4.191a1.206 1.206 0 0 1-1.185-1.184V42.52c0-.637.547-1.184 1.185-1.184h3.007c.638 0 1.184.547 1.184 1.184Zm-1.002.956v-.956a.196.196 0 0 0-.182-.182h-3.007a.196.196 0 0 0-.182.182v.956h3.371Zm2.961 2.14h-1.002v1.002h1.002v-1.002Zm109.751 0h-1.002v1.002H219v-1.002Zm-106.288-5.554h.957v5.554h5.558v1.002h-6.515v-6.556Zm11.162 1.274c.638 0 1.184.547 1.184 1.184v2.914c0 .637-.546 1.183-1.184 1.183h-3.007a1.206 1.206 0 0 1-1.185-1.183V42.52c0-.637.547-1.184 1.185-1.184h3.007Zm-3.007 1.002a.196.196 0 0 0-.182.182v2.914c0 .09.091.182.182.182h3.007a.196.196 0 0 0 .182-.182V42.52a.196.196 0 0 0-.182-.182h-3.007Zm11.298-1.002-2.87 5.281h-1.002l-2.916-5.28h1.139l2.278 4.188 2.278-4.189h1.093Zm5.467 1.184v1.958h-4.373v.956c0 .09.091.182.182.182h4.191v1.002h-4.191a1.206 1.206 0 0 1-1.185-1.184V42.52c0-.637.547-1.184 1.185-1.184h3.007c.638 0 1.184.547 1.184 1.184Zm-1.002.956v-.956a.196.196 0 0 0-.182-.182h-3.007a.196.196 0 0 0-.182.182v.956h3.371Zm2.916 2.14h-1.002v1.002h1.002v-1.002ZM85.741 41.11c.593 0 1.094.5 1.094 1.093v2.321c0 .592-.501 1.093-1.094 1.093h-3.417V41.11h3.417Zm0-1.002h-4.419v6.51h4.42a2.09 2.09 0 0 0 2.095-2.094v-2.322a2.09 2.09 0 0 0-2.096-2.094Z" fill="#fff"/><defs><linearGradient id="b" x1="10.496" y1="51.3" x2="36.393" y2="37.888" gradientUnits="userSpaceOnUse"><stop stop-color="#6311DD"/><stop offset="1" stop-color="#6311DD" stop-opacity="0"/></linearGradient><linearGradient id="c" x1="48.559" y1="-.67" x2="27.734" y2="20.54" gradientUnits="userSpaceOnUse"><stop stop-color="#6311DD"/><stop offset="1" stop-color="#6311DD" stop-opacity="0"/></linearGradient></defs></svg>